<?xml version="1.0" encoding="utf-8"?>
<!-- Generator: Adobe Illustrator 24.0.0, SVG Export Plug-In . SVG Version: 6.00 Build 0)  -->
<svg version="1.1" id="Layer_1" xmlns="http://www.w3.org/2000/svg" xmlns:xlink="http://www.w3.org/1999/xlink" x="0px" y="0px"
	 viewBox="0 0 512 512" style="enable-background:new 0 0 512 512;" xml:space="preserve">
<g>
	<path d="M464.1,65.2H48c-25.8,0-46.8,21-46.8,46.8s21,46.8,46.8,46.8H464c25.8,0,46.8-21,46.8-46.8S489.9,65.2,464.1,65.2z"/>
	<path d="M464.1,209.2H48c-25.8,0-46.8,21-46.8,46.8s21,46.8,46.8,46.8H464c25.8,0,46.8-21,46.8-46.8S489.9,209.2,464.1,209.2
		L464.1,209.2z"/>
	<path d="M464.1,353.2H48c-25.8,0-46.8,21-46.8,46.8s21,46.8,46.8,46.8H464c25.8,0,46.8-21,46.8-46.8S489.9,353.2,464.1,353.2z"/>
</g>
</svg>
